<svg width="83" height="83" viewBox="0 0 83 83" fill="none" xmlns="http://www.w3.org/2000/svg">
<path d="M40.6705 3.69629C36.8826 4.18829 33.448 8.63155 33.448 14.385C33.448 17.5555 34.5457 20.3597 36.1545 22.2983L38.0738 24.6105L35.1207 25.1656C33.0295 25.5587 31.4962 26.6635 30.1856 28.4622C28.8749 30.2612 27.8729 32.7675 27.1707 35.6558C25.8993 40.8887 25.6196 47.2779 25.5752 52.9101H32.5245L34.4327 78.4968C39.2788 79.5907 44.4528 79.5521 49.1201 78.5009L50.8083 52.9103H57.425C57.4206 47.209 57.3477 40.7316 56.1955 35.4592C55.5604 32.5519 54.5975 30.0493 53.2711 28.2708C51.9442 26.4924 50.3402 25.3941 47.9923 25.0304L44.9784 24.5635L46.8809 22.1798C48.4201 20.2512 49.4636 17.4792 49.4636 14.3853C49.4636 8.2514 45.6289 3.71137 41.4556 3.71137L40.6705 3.69629Z" fill="#004A73"/>
</svg>
