<svg width="30" height="31" viewBox="0 0 30 31" fill="none" xmlns="http://www.w3.org/2000/svg">
<rect x="0.375" y="0.625" width="29.25" height="29.25" stroke="#A0A1A6" stroke-opacity="0.5" stroke-width="0.75"/>
<path d="M18.9375 9.25H11.0625C10.3169 9.25089 9.602 9.5475 9.07475 10.0747C8.5475 10.602 8.25089 11.3169 8.25 12.0625V18.8125C8.25089 19.5581 8.5475 20.273 9.07475 20.8003C9.602 21.3275 10.3169 21.6241 11.0625 21.625H18.9375C19.6831 21.6241 20.398 21.3275 20.9253 20.8003C21.4525 20.273 21.7491 19.5581 21.75 18.8125V12.0625C21.7491 11.3169 21.4525 10.602 20.9253 10.0747C20.398 9.5475 19.6831 9.25089 18.9375 9.25ZM11.0625 10.375H18.9375C19.2743 10.3757 19.6032 10.4771 19.8819 10.6663C20.1606 10.8554 20.3763 11.1237 20.5013 11.4364L16.1936 15.7446C15.8766 16.0604 15.4474 16.2376 15 16.2376C14.5526 16.2376 14.1234 16.0604 13.8064 15.7446L9.49875 11.4364C9.62371 11.1237 9.83941 10.8554 10.1181 10.6663C10.3968 10.4771 10.7257 10.3757 11.0625 10.375ZM18.9375 20.5H11.0625C10.6149 20.5 10.1857 20.3222 9.86926 20.0057C9.55279 19.6893 9.375 19.2601 9.375 18.8125V12.9062L13.011 16.54C13.539 17.0666 14.2543 17.3624 15 17.3624C15.7457 17.3624 16.461 17.0666 16.989 16.54L20.625 12.9062V18.8125C20.625 19.2601 20.4472 19.6893 20.1307 20.0057C19.8143 20.3222 19.3851 20.5 18.9375 20.5Z" fill="#68883A"/>
</svg>
