<svg width="28" height="29" viewBox="0 0 28 29" fill="none" xmlns="http://www.w3.org/2000/svg">
<path d="M11.35 6.68066H17.65C20.05 6.68066 22 8.63066 22 11.0307V17.3307C22 18.4844 21.5417 19.5908 20.7259 20.4066C19.9101 21.2224 18.8037 21.6807 17.65 21.6807H11.35C8.95 21.6807 7 19.7307 7 17.3307V11.0307C7 9.87697 7.4583 8.77053 8.27409 7.95475C9.08987 7.13897 10.1963 6.68066 11.35 6.68066ZM11.2 8.18066C10.4839 8.18066 9.79716 8.46513 9.29081 8.97148C8.78446 9.47782 8.5 10.1646 8.5 10.8807V17.4807C8.5 18.9732 9.7075 20.1807 11.2 20.1807H17.8C18.5161 20.1807 19.2028 19.8962 19.7092 19.3899C20.2155 18.8835 20.5 18.1967 20.5 17.4807V10.8807C20.5 9.38816 19.2925 8.18066 17.8 8.18066H11.2ZM18.4375 9.30566C18.6861 9.30566 18.9246 9.40444 19.1004 9.58025C19.2762 9.75607 19.375 9.99452 19.375 10.2432C19.375 10.4918 19.2762 10.7303 19.1004 10.9061C18.9246 11.0819 18.6861 11.1807 18.4375 11.1807C18.1889 11.1807 17.9504 11.0819 17.7746 10.9061C17.5988 10.7303 17.5 10.4918 17.5 10.2432C17.5 9.99452 17.5988 9.75607 17.7746 9.58025C17.9504 9.40444 18.1889 9.30566 18.4375 9.30566ZM14.5 10.4307C15.4946 10.4307 16.4484 10.8258 17.1517 11.529C17.8549 12.2323 18.25 13.1861 18.25 14.1807C18.25 15.1752 17.8549 16.1291 17.1517 16.8323C16.4484 17.5356 15.4946 17.9307 14.5 17.9307C13.5054 17.9307 12.5516 17.5356 11.8483 16.8323C11.1451 16.1291 10.75 15.1752 10.75 14.1807C10.75 13.1861 11.1451 12.2323 11.8483 11.529C12.5516 10.8258 13.5054 10.4307 14.5 10.4307ZM14.5 11.9307C13.9033 11.9307 13.331 12.1677 12.909 12.5897C12.4871 13.0116 12.25 13.5839 12.25 14.1807C12.25 14.7774 12.4871 15.3497 12.909 15.7717C13.331 16.1936 13.9033 16.4307 14.5 16.4307C15.0967 16.4307 15.669 16.1936 16.091 15.7717C16.5129 15.3497 16.75 14.7774 16.75 14.1807C16.75 13.5839 16.5129 13.0116 16.091 12.5897C15.669 12.1677 15.0967 11.9307 14.5 11.9307Z" fill="white"/>
<circle cx="14" cy="14.6807" r="13" stroke="white" stroke-width="2"/>
</svg>
