<svg width="28" height="29" viewBox="0 0 28 29" fill="none" xmlns="http://www.w3.org/2000/svg">
<path d="M19.8333 7.18066C20.2754 7.18066 20.6993 7.35626 21.0118 7.66882C21.3244 7.98138 21.5 8.4053 21.5 8.84733V20.514C21.5 20.956 21.3244 21.3799 21.0118 21.6925C20.6993 22.0051 20.2754 22.1807 19.8333 22.1807H8.16667C7.72464 22.1807 7.30072 22.0051 6.98816 21.6925C6.67559 21.3799 6.5 20.956 6.5 20.514V8.84733C6.5 8.4053 6.67559 7.98138 6.98816 7.66882C7.30072 7.35626 7.72464 7.18066 8.16667 7.18066H19.8333ZM19.4167 20.0973V15.6807C19.4167 14.9602 19.1304 14.2692 18.621 13.7597C18.1115 13.2502 17.4205 12.964 16.7 12.964C15.9917 12.964 15.1667 13.3973 14.7667 14.0473V13.1223H12.4417V20.0973H14.7667V15.989C14.7667 15.3473 15.2833 14.8223 15.925 14.8223C16.2344 14.8223 16.5312 14.9452 16.75 15.164C16.9688 15.3828 17.0917 15.6796 17.0917 15.989V20.0973H19.4167ZM9.73333 11.814C10.1046 11.814 10.4607 11.6665 10.7233 11.4039C10.9858 11.1414 11.1333 10.7853 11.1333 10.414C11.1333 9.639 10.5083 9.00566 9.73333 9.00566C9.35982 9.00566 9.0016 9.15404 8.73749 9.41816C8.47338 9.68227 8.325 10.0405 8.325 10.414C8.325 11.189 8.95833 11.814 9.73333 11.814ZM10.8917 20.0973V13.1223H8.58333V20.0973H10.8917Z" fill="white"/>
<circle cx="14" cy="14.6807" r="13" stroke="white" stroke-width="2"/>
</svg>
