<svg width="46" height="46" viewBox="0 0 46 46" fill="none" xmlns="http://www.w3.org/2000/svg">
<circle cx="23.0827" cy="23.1424" r="22.1941" fill="#68883A"/>
<path d="M22.5895 32.5133C28.0372 32.5133 32.4535 28.097 32.4535 22.6492C32.4535 17.2014 28.0372 12.7852 22.5895 12.7852C17.1417 12.7852 12.7254 17.2014 12.7254 22.6492C12.7254 28.097 17.1417 32.5133 22.5895 32.5133Z" stroke="white" stroke-width="1.97281" stroke-linecap="round" stroke-linejoin="round"/>
<path d="M22.5893 28.5673C25.858 28.5673 28.5078 25.9176 28.5078 22.6489C28.5078 19.3802 25.858 16.7305 22.5893 16.7305C19.3207 16.7305 16.6709 19.3802 16.6709 22.6489C16.6709 25.9176 19.3207 28.5673 22.5893 28.5673Z" stroke="white" stroke-width="1.97281" stroke-linecap="round" stroke-linejoin="round"/>
<path d="M22.5892 24.6224C23.6788 24.6224 24.562 23.7391 24.562 22.6496C24.562 21.56 23.6788 20.6768 22.5892 20.6768C21.4997 20.6768 20.6164 21.56 20.6164 22.6496C20.6164 23.7391 21.4997 24.6224 22.5892 24.6224Z" stroke="white" stroke-width="1.97281" stroke-linecap="round" stroke-linejoin="round"/>
</svg>
