<svg width="72" height="72" viewBox="0 0 72 72" fill="none" xmlns="http://www.w3.org/2000/svg">
<rect x="0.833984" y="0.611328" width="70.6799" height="70.6799" rx="6.14608" fill="#68883A"/>
<mask id="mask0_42_3388" style="mask-type:alpha" maskUnits="userSpaceOnUse" x="20" y="20" width="32" height="32">
<rect x="20.8091" y="20.5859" width="30.7304" height="30.7304" fill="#D9D9D9"/>
</mask>
<g mask="url(#mask0_42_3388)">
<path d="M25.9307 47.4746C24.8636 47.4746 23.9567 47.1011 23.2097 46.3542C22.4628 45.6073 22.0894 44.7003 22.0894 43.6333C22.0894 42.801 22.3294 42.0541 22.8096 41.3925C23.2898 40.7309 23.9033 40.2721 24.6502 40.016V31.8853C23.9033 31.6292 23.2898 31.1704 22.8096 30.5088C22.3294 29.8473 22.0894 29.1003 22.0894 28.2681C22.0894 27.201 22.4628 26.2941 23.2097 25.5471C23.9567 24.8002 24.8636 24.4268 25.9307 24.4268C26.9977 24.4268 27.9047 24.8002 28.6516 25.5471C29.3985 26.2941 29.772 27.201 29.772 28.2681C29.772 29.1003 29.5319 29.8473 29.0517 30.5088C28.5716 31.1704 27.958 31.6292 27.2111 31.8853V34.6702H34.8937V31.8853C34.1468 31.6292 33.5332 31.1704 33.0531 30.5088C32.5729 29.8473 32.3328 29.1003 32.3328 28.2681C32.3328 27.201 32.7063 26.2941 33.4532 25.5471C34.2001 24.8002 35.1071 24.4268 36.1741 24.4268C37.2412 24.4268 38.1481 24.8002 38.8951 25.5471C39.642 26.2941 40.0154 27.201 40.0154 28.2681C40.0154 29.1003 39.7753 29.8473 39.2952 30.5088C38.815 31.1704 38.2015 31.6292 37.4546 31.8853V34.6702H43.8567C44.2195 34.6702 44.5236 34.5475 44.769 34.3021C45.0145 34.0567 45.1372 33.7526 45.1372 33.3898V31.8853C44.3902 31.6292 43.7767 31.1704 43.2965 30.5088C42.8164 29.8473 42.5763 29.1003 42.5763 28.2681C42.5763 27.201 42.9498 26.2941 43.6967 25.5471C44.4436 24.8002 45.3506 24.4268 46.4176 24.4268C47.4846 24.4268 48.3916 24.8002 49.1385 25.5471C49.8854 26.2941 50.2589 27.201 50.2589 28.2681C50.2589 29.1003 50.0188 29.8473 49.5387 30.5088C49.0585 31.1704 48.445 31.6292 47.698 31.8853V33.3898C47.698 34.4568 47.3246 35.3638 46.5777 36.1107C45.8307 36.8576 44.9238 37.2311 43.8567 37.2311H37.4546V40.016C38.2015 40.2721 38.815 40.7309 39.2952 41.3925C39.7753 42.0541 40.0154 42.801 40.0154 43.6333C40.0154 44.7003 39.642 45.6073 38.8951 46.3542C38.1481 47.1011 37.2412 47.4746 36.1741 47.4746C35.1071 47.4746 34.2001 47.1011 33.4532 46.3542C32.7063 45.6073 32.3328 44.7003 32.3328 43.6333C32.3328 42.801 32.5729 42.0541 33.0531 41.3925C33.5332 40.7309 34.1468 40.2721 34.8937 40.016V37.2311H27.2111V40.016C27.958 40.2721 28.5716 40.7309 29.0517 41.3925C29.5319 42.0541 29.772 42.801 29.772 43.6333C29.772 44.7003 29.3985 45.6073 28.6516 46.3542C27.9047 47.1011 26.9977 47.4746 25.9307 47.4746ZM25.9307 44.9137C26.2934 44.9137 26.5975 44.791 26.843 44.5456C27.0884 44.3002 27.2111 43.9961 27.2111 43.6333C27.2111 43.2705 27.0884 42.9664 26.843 42.721C26.5975 42.4755 26.2934 42.3528 25.9307 42.3528C25.5679 42.3528 25.2638 42.4755 25.0183 42.721C24.7729 42.9664 24.6502 43.2705 24.6502 43.6333C24.6502 43.9961 24.7729 44.3002 25.0183 44.5456C25.2638 44.791 25.5679 44.9137 25.9307 44.9137ZM25.9307 29.5485C26.2934 29.5485 26.5975 29.4258 26.843 29.1804C27.0884 28.935 27.2111 28.6308 27.2111 28.2681C27.2111 27.9053 27.0884 27.6012 26.843 27.3558C26.5975 27.1103 26.2934 26.9876 25.9307 26.9876C25.5679 26.9876 25.2638 27.1103 25.0183 27.3558C24.7729 27.6012 24.6502 27.9053 24.6502 28.2681C24.6502 28.6308 24.7729 28.935 25.0183 29.1804C25.2638 29.4258 25.5679 29.5485 25.9307 29.5485ZM36.1741 44.9137C36.5369 44.9137 36.841 44.791 37.0864 44.5456C37.3319 44.3002 37.4546 43.9961 37.4546 43.6333C37.4546 43.2705 37.3319 42.9664 37.0864 42.721C36.841 42.4755 36.5369 42.3528 36.1741 42.3528C35.8113 42.3528 35.5072 42.4755 35.2618 42.721C35.0164 42.9664 34.8937 43.2705 34.8937 43.6333C34.8937 43.9961 35.0164 44.3002 35.2618 44.5456C35.5072 44.791 35.8113 44.9137 36.1741 44.9137ZM36.1741 29.5485C36.5369 29.5485 36.841 29.4258 37.0864 29.1804C37.3319 28.935 37.4546 28.6308 37.4546 28.2681C37.4546 27.9053 37.3319 27.6012 37.0864 27.3558C36.841 27.1103 36.5369 26.9876 36.1741 26.9876C35.8113 26.9876 35.5072 27.1103 35.2618 27.3558C35.0164 27.6012 34.8937 27.9053 34.8937 28.2681C34.8937 28.6308 35.0164 28.935 35.2618 29.1804C35.5072 29.4258 35.8113 29.5485 36.1741 29.5485ZM46.4176 29.5485C46.7804 29.5485 47.0845 29.4258 47.3299 29.1804C47.5753 28.935 47.698 28.6308 47.698 28.2681C47.698 27.9053 47.5753 27.6012 47.3299 27.3558C47.0845 27.1103 46.7804 26.9876 46.4176 26.9876C46.0548 26.9876 45.7507 27.1103 45.5053 27.3558C45.2599 27.6012 45.1372 27.9053 45.1372 28.2681C45.1372 28.6308 45.2599 28.935 45.5053 29.1804C45.7507 29.4258 46.0548 29.5485 46.4176 29.5485Z" fill="white"/>
</g>
</svg>
