<svg width="31" height="31" viewBox="0 0 31 31" fill="none" xmlns="http://www.w3.org/2000/svg">
<rect x="0.875" y="0.875" width="29.25" height="29.25" stroke="#A0A1A6" stroke-opacity="0.5" stroke-width="0.75"/>
<path d="M16.0524 9.31432C16.0524 9.16489 16.1118 9.02158 16.2174 8.91592C16.3231 8.81026 16.4664 8.7509 16.6158 8.7509C18.1096 8.75254 19.5417 9.34667 20.598 10.4029C21.6542 11.4592 22.2484 12.8913 22.25 14.3851C22.25 14.5345 22.1906 14.6778 22.085 14.7835C21.9793 14.8891 21.836 14.9485 21.6866 14.9485C21.5372 14.9485 21.3938 14.8891 21.2882 14.7835C21.1825 14.6778 21.1232 14.5345 21.1232 14.3851C21.1218 13.1901 20.6465 12.0444 19.8015 11.1994C18.9565 10.3544 17.8108 9.87908 16.6158 9.87773C16.4664 9.87773 16.3231 9.81837 16.2174 9.71271C16.1118 9.60705 16.0524 9.46374 16.0524 9.31432ZM16.6158 12.1314C17.2135 12.1314 17.7868 12.3688 18.2094 12.7915C18.6321 13.2141 18.8695 13.7874 18.8695 14.3851C18.8695 14.5345 18.9289 14.6778 19.0345 14.7835C19.1402 14.8891 19.2835 14.9485 19.4329 14.9485C19.5823 14.9485 19.7256 14.8891 19.8313 14.7835C19.937 14.6778 19.9963 14.5345 19.9963 14.3851C19.9954 13.4888 19.639 12.6295 19.0052 11.9957C18.3714 11.3619 17.5121 11.0055 16.6158 11.0046C16.4664 11.0046 16.3231 11.0639 16.2174 11.1696C16.1118 11.2753 16.0524 11.4186 16.0524 11.568C16.0524 11.7174 16.1118 11.8607 16.2174 11.9664C16.3231 12.072 16.4664 12.1314 16.6158 12.1314ZM21.739 18.1819C22.0655 18.5094 22.2488 18.9529 22.2488 19.4153C22.2488 19.8777 22.0655 20.3212 21.739 20.6486L21.2263 21.2396C16.6119 25.6574 5.38297 14.4313 9.73256 9.80224L10.3805 9.23882C10.7083 8.92143 11.1478 8.74586 11.6041 8.75007C12.0603 8.75429 12.4965 8.93796 12.8184 9.26136C12.8359 9.27882 13.8799 10.635 13.8799 10.635C14.1897 10.9604 14.3621 11.3927 14.3614 11.842C14.3606 12.2913 14.1868 12.7231 13.8759 13.0475L13.2235 13.8679C13.5846 14.7452 14.1154 15.5425 14.7856 16.214C15.4557 16.8855 16.252 17.418 17.1285 17.7808L17.9539 17.1244C18.2784 16.8138 18.7101 16.6401 19.1593 16.6395C19.6084 16.6389 20.0406 16.8113 20.3659 17.121C20.3659 17.121 21.7215 18.1645 21.739 18.1819ZM20.9637 19.0012C20.9637 19.0012 19.6155 17.9639 19.598 17.9464C19.4819 17.8313 19.3251 17.7668 19.1616 17.7668C18.9982 17.7668 18.8413 17.8313 18.7253 17.9464C18.71 17.9622 17.5736 18.8676 17.5736 18.8676C17.4971 18.9286 17.4059 18.9685 17.3092 18.9836C17.2125 18.9986 17.1135 18.9881 17.0221 18.9533C15.8865 18.5305 14.855 17.8685 13.9975 17.0123C13.1401 16.1561 12.4766 15.1256 12.0521 13.9907C12.0145 13.898 12.0022 13.7969 12.0166 13.6979C12.031 13.5989 12.0714 13.5055 12.1338 13.4273C12.1338 13.4273 13.0393 12.2903 13.0545 12.2756C13.1696 12.1596 13.2341 12.0027 13.2341 11.8393C13.2341 11.6758 13.1696 11.519 13.0545 11.4029C13.037 11.386 11.9997 10.0366 11.9997 10.0366C11.8819 9.93098 11.7282 9.87441 11.57 9.87849C11.4118 9.88258 11.2612 9.94701 11.149 10.0586L10.5011 10.622C7.32226 14.4442 17.053 23.6353 20.4026 20.47L20.9158 19.8784C21.0361 19.767 21.1083 19.6132 21.1173 19.4495C21.1262 19.2858 21.0712 19.125 20.9637 19.0012Z" fill="#68883A"/>
</svg>
