<svg width="20" height="20" viewBox="0 0 20 20" fill="none" xmlns="http://www.w3.org/2000/svg">
<path d="M19.3154 18.4395L14.2807 13.4853C15.5991 12.0528 16.4092 10.1584 16.4092 8.07383C16.4086 3.61449 12.7355 0 8.20428 0C3.67302 0 0 3.61449 0 8.07383C0 12.5332 3.67302 16.1477 8.20428 16.1477C10.1621 16.1477 11.9578 15.4705 13.3682 14.3447L18.4224 19.3184C18.6687 19.561 19.0685 19.561 19.3148 19.3184C19.5616 19.0759 19.5616 18.6821 19.3154 18.4395ZM8.20428 14.9055C4.37034 14.9055 1.26234 11.8468 1.26234 8.07383C1.26234 4.30082 4.37034 1.24221 8.20428 1.24221C12.0382 1.24221 15.1462 4.30082 15.1462 8.07383C15.1462 11.8468 12.0382 14.9055 8.20428 14.9055Z" fill="white"/>
</svg>
