<svg width="71" height="72" viewBox="0 0 71 72" fill="none" xmlns="http://www.w3.org/2000/svg">
<rect x="0.211914" y="0.352539" width="70.6799" height="70.6799" rx="6.15" fill="#68883A"/>
<mask id="mask0_42_3363" style="mask-type:alpha" maskUnits="userSpaceOnUse" x="20" y="20" width="31" height="32">
<rect x="20.1865" y="20.3271" width="30.7304" height="30.7304" fill="#D9D9D9"/>
</mask>
<g mask="url(#mask0_42_3363)">
<path d="M34.2713 45.1993V36.4283L26.5887 31.9788V40.7497L34.2713 45.1993ZM36.8322 45.1993L44.5148 40.7497V31.9788L36.8322 36.4283V45.1993ZM35.5517 34.2195L43.1383 29.834L35.5517 25.4486L27.9652 29.834L35.5517 34.2195ZM25.3083 42.9905C24.9028 42.7558 24.588 42.4463 24.3639 42.0622C24.1399 41.6781 24.0278 41.2512 24.0278 40.7818V30.6023C24.0278 30.1328 24.1399 29.706 24.3639 29.3219C24.588 28.9377 24.9028 28.6283 25.3083 28.3936L34.2713 23.2398C34.6768 23.0051 35.1036 22.8877 35.5517 22.8877C35.9999 22.8877 36.4267 23.0051 36.8322 23.2398L45.7952 28.3936C46.2007 28.6283 46.5155 28.9377 46.7395 29.3219C46.9636 29.706 47.0756 30.1328 47.0756 30.6023V40.7818C47.0756 41.2512 46.9636 41.6781 46.7395 42.0622C46.5155 42.4463 46.2007 42.7558 45.7952 42.9905L36.8322 48.1443C36.4267 48.379 35.9999 48.4964 35.5517 48.4964C35.1036 48.4964 34.6768 48.379 34.2713 48.1443L25.3083 42.9905Z" fill="white"/>
</g>
</svg>
