<svg width="71" height="82" viewBox="0 0 71 82" fill="none" xmlns="http://www.w3.org/2000/svg">
<rect x="-0.00732422" y="0.821289" width="70.6799" height="80.3181" rx="6.14608" fill="#68883A"/>
<path d="M34.2933 53.8086C28.9707 53.8086 26.308 53.8086 24.6533 52.1971C23 50.587 23 47.9937 23 42.8086V37.3086C23 32.1235 23 29.5302 24.6533 27.9201C26.308 26.3086 28.9707 26.3086 34.2933 26.3086H35.7067C41.0307 26.3086 43.692 26.3086 45.3467 27.9201C47 29.5302 47 32.1235 47 37.3086M34.3333 53.8086H36.3333M29.6667 33.1836H40.3333M29.6667 40.0586H36.3333" stroke="white" stroke-width="1.5" stroke-linecap="round" stroke-linejoin="round"/>
<path d="M42.3335 49.1198L41.1308 53.4552C41.1187 53.5044 41.12 53.556 41.1346 53.6045C41.1492 53.6529 41.1765 53.6963 41.2135 53.7297C41.2505 53.7632 41.2957 53.7854 41.3442 53.794C41.3926 53.8026 41.4425 53.7972 41.4882 53.7783L44.1348 52.688C44.2623 52.6352 44.4047 52.6352 44.5322 52.688L47.2042 53.788C47.2489 53.8064 47.2976 53.8119 47.3451 53.8041C47.3926 53.7962 47.4372 53.7753 47.4741 53.7434C47.511 53.7116 47.5389 53.67 47.5547 53.6231C47.5706 53.5763 47.5738 53.5258 47.5642 53.4772L46.5455 48.9837M48.3335 45.5517C48.3317 44.4589 47.9095 43.4114 47.1596 42.6393C46.4096 41.8672 45.3932 41.4336 44.3335 41.4336C42.1242 41.4336 40.3335 43.2775 40.3335 45.5517C40.3338 46.093 40.4376 46.6289 40.6388 47.1288C40.84 47.6287 41.1348 48.0829 41.5063 48.4653C41.8777 48.8477 42.3186 49.1509 42.8037 49.3576C43.2888 49.5643 43.8086 49.6704 44.3335 49.6698C46.5428 49.6698 48.3335 47.8273 48.3335 45.5517Z" stroke="white" stroke-width="1.5" stroke-linecap="round" stroke-linejoin="round"/>
</svg>
