<svg width="46" height="45" viewBox="0 0 46 45" fill="none" xmlns="http://www.w3.org/2000/svg">
<circle cx="23.0827" cy="22.7293" r="22.1941" fill="#68883A"/>
<path d="M12.7255 22.2362H13.9311M23.5759 11.3857V12.5913M33.2208 22.2362H34.4264M15.86 14.5203L16.704 15.3642M31.2918 14.5203L30.4479 15.3642M20.803 28.2642H26.3488M19.9591 27.0586C18.947 26.2995 18.1993 25.2412 17.8221 24.0336C17.4449 22.8259 17.4571 21.5302 17.8572 20.33C18.2573 19.1297 19.0249 18.0858 20.0513 17.346C21.0776 16.6062 22.3108 16.2082 23.5759 16.2082C24.8411 16.2082 26.0742 16.6062 27.1006 17.346C28.127 18.0858 28.8945 19.1297 29.2946 20.33C29.6947 21.5302 29.707 22.8259 29.3298 24.0336C28.9525 25.2412 28.2049 26.2995 27.1928 27.0586C26.722 27.5246 26.3676 28.0948 26.1582 28.7231C25.9487 29.3515 25.8901 30.0203 25.9871 30.6755C25.9871 31.315 25.7331 31.9283 25.2809 32.3804C24.8287 32.8326 24.2154 33.0867 23.5759 33.0867C22.9364 33.0867 22.3231 32.8326 21.8709 32.3804C21.4188 31.9283 21.1647 31.315 21.1647 30.6755C21.2617 30.0203 21.2031 29.3515 20.9937 28.7231C20.7842 28.0948 20.4298 27.5246 19.9591 27.0586Z" stroke="white" stroke-width="1.97281" stroke-linecap="round" stroke-linejoin="round"/>
</svg>
