<svg width="28" height="29" viewBox="0 0 28 29" fill="none" xmlns="http://www.w3.org/2000/svg">
<path d="M13 16.8235L16.8925 14.6807L13 12.5378V16.8235ZM21.67 11.2307C21.7675 11.5664 21.835 12.0164 21.88 12.5878C21.9325 13.1592 21.955 13.6521 21.955 14.0807L22 14.6807C22 16.2449 21.88 17.3949 21.67 18.1307C21.4825 18.7735 21.0475 19.1878 20.3725 19.3664C20.02 19.4592 19.375 19.5235 18.385 19.5664C17.41 19.6164 16.5175 19.6378 15.6925 19.6378L14.5 19.6807C11.3575 19.6807 9.4 19.5664 8.6275 19.3664C7.9525 19.1878 7.5175 18.7735 7.33 18.1307C7.2325 17.7949 7.165 17.345 7.12 16.7735C7.0675 16.2021 7.045 15.7092 7.045 15.2807L7 14.6807C7 13.1164 7.12 11.9664 7.33 11.2307C7.5175 10.5878 7.9525 10.1735 8.6275 9.99495C8.98 9.90209 9.625 9.83781 10.615 9.79495C11.59 9.74495 12.4825 9.72352 13.3075 9.72352L14.5 9.68066C17.6425 9.68066 19.6 9.79495 20.3725 9.99495C21.0475 10.1735 21.4825 10.5878 21.67 11.2307Z" fill="white"/>
<circle cx="14" cy="14.6807" r="13" stroke="white" stroke-width="2"/>
</svg>
